<?xml version="1.0" encoding="UTF-8"?>
<svg id="Layer_1" data-name="Layer 1" xmlns="http://www.w3.org/2000/svg" viewBox="0 0 100 100">
  <defs>
    <style>
      .cls-1, .cls-2 {
        fill: none;
        stroke: #231f20;
        stroke-linecap: round;
        stroke-linejoin: round;
        stroke-width: 3px;
      }

      .cls-2 {
        fill-rule: evenodd;
      }
    </style>
  </defs>
  <path class="cls-2" d="M88.27,62.08v-15.94c0-2.06-1.67-3.72-3.72-3.72H8.13c-2.06,0-3.72,1.67-3.72,3.72v36.32c0,2.06,1.67,3.72,3.72,3.72h75.65c2.06,0,3.72-1.67,3.72-3.72v-4.72c0-1.34.72-2.57,1.88-3.23l4.35-2.48c1.16-.66,1.88-1.9,1.88-3.23v-8.47c0-1.4-.79-2.68-2.03-3.32l-5.29-2.7"/>
  <g>
    <line class="cls-1" x1="74.34" y1="26.93" x2="48.42" y2="72.13"/>
    <polyline class="cls-2" points="67.54 67.42 48.42 72.13 43.18 53.22"/>
  </g>
  <g>
    <line class="cls-1" x1="22.43" y1="59.02" x2="48.35" y2="13.82"/>
    <polyline class="cls-2" points="29.24 18.52 48.35 13.82 53.6 32.73"/>
  </g>
</svg>