<?xml version="1.0" encoding="UTF-8"?>
<svg id="fill" xmlns="http://www.w3.org/2000/svg" viewBox="0 0 100 100">
  <path d="M70.7,69.9c1.76,0,2.29-.82,2.29-2.58s-.53-2.74-2.26-2.74-2.36,1.04-2.36,2.74.58,2.58,2.33,2.58Z"/>
  <path d="M80.84,5H28.55c-2.33,0-4.21,1.88-4.21,4.21v17.48l-9.39,4.01v8.32l2.68,2.37v4.16l-2.68,1.93v43.31c0,2.33,1.88,4.21,4.21,4.21h61.68c2.33,0,4.21-1.88,4.21-4.21V9.21c0-2.33-1.88-4.21-4.21-4.21ZM70.7,61.64c3.94,0,5.27,2.69,5.27,5.68s-1.36,5.56-5.27,5.56-5.3-2.55-5.3-5.55,1.37-5.69,5.3-5.69ZM69.98,75.03c.65.15,1.17.3,1.61.45l-5.67,1.92-.59-.35,4.65-2.02ZM64.09,76.66c-1.4-.31-2.95-.35-3.23-.36l.72-2.02c2.33-.05,4.25.08,5.82.28l-3.3,2.09ZM57.52,12.7c0-1.08.88-1.96,1.96-1.96h3.5c1.08,0,1.96.88,1.96,1.96v11.28c0,1.08-.88,1.96-1.96,1.96h-3.5c-1.08,0-1.96-.88-1.96-1.96v-11.28ZM55.3,65.17s-.07-3.6,5.17-3.6c4.51,0,4.47,3.35,4.47,3.35v1.03s-.18.81-1.58.81-1.69-.82-1.69-.82v-.98s-.42-.63-1.71-.63c-1.5,0-1.44,1.31-1.44,1.31v7.28h-3.23v-7.75ZM54.73,63.21c0,1.52-1.42,1.6-1.42,1.6h-1.95c-1.76,0-2.69,1.07-2.69,2.45s.93,2.48,2.69,2.48h1.95s1.42.22,1.42,1.48-1.42,1.66-1.42,1.66h-2.08c-3.09,0-6.2-2.05-6.2-5.62s3.11-5.61,6.2-5.61h2.08s1.42.04,1.42,1.57ZM44.41,12.7c0-1.08.88-1.96,1.96-1.96h3.5c1.08,0,1.96.88,1.96,1.96v11.28c0,1.08-.88,1.96-1.96,1.96h-3.5c-1.08,0-1.96-.88-1.96-1.96v-11.28ZM40.99,66.38s.4-.93,1.8-.93c1.26,0,1.58.93,1.58.93v6.76h-3.38v-6.76ZM31.29,12.7c0-1.08.88-1.96,1.96-1.96h3.5c1.08,0,1.96.88,1.96,1.96v11.28c0,1.08-.88,1.96-1.96,1.96h-3.5c-1.08,0-1.96-.88-1.96-1.96v-11.28ZM40.18,79.97h-3.5v-13.85c0-.58-.43-1.07-1.3-1.07s-1.29.49-1.29,1.07v13.85h-3.37v-13.85c0-.58-.43-1.07-1.29-1.07s-1.3.49-1.3,1.07v13.85h-3.5v-14.63c0-2.18,2.2-3.54,4.63-3.54,1.16,0,2.35.55,3.14,1.31.8-.76,1.99-1.31,3.14-1.31,2.43,0,4.64,1.36,4.64,3.54v14.63ZM46.86,85.72c-2.25,0-6.11-.21-6.11-.21l1.26-3.65s.91.14,3.09.35c2.16.21,5.69.44,5.75-.35.07-1.14-6.42-1.27-6.46-4.48-.07-4.21,15.13-3.09,15.13-3.09l-.84,2.1s-10.13-.43-10.16.63c-.03,1.65,7.78.77,8.13,5.04.35,4.28-7.57,3.66-9.81,3.66ZM75.81,80.03c-2.46,5.97-18.31,5.67-18.31,5.67l1.61-4.55v-.02c4.38-.34,7.3-.96,7.3-2.85l-.09-.41,6.81-1.73c.48.19,3.6,1.61,2.67,3.89ZM78.07,23.98c0,1.08-.88,1.96-1.96,1.96h-3.5c-1.08,0-1.96-.88-1.96-1.96v-11.28c0-1.08.88-1.96,1.96-1.96h3.5c1.08,0,1.96.88,1.96,1.96v11.28Z"/>
</svg>