<?xml version="1.0" encoding="UTF-8"?>
<svg id="Layer_1" xmlns="http://www.w3.org/2000/svg" version="1.1" viewBox="0 0 100 100">
  <!-- Generator: Adobe Illustrator 29.0.1, SVG Export Plug-In . SVG Version: 2.1.0 Build 192)  -->
  <defs>
    <style>
      .st0 {
        isolation: isolate;
      }

      .st1 {
        fill: none;
        stroke: #000;
        stroke-linejoin: round;
        stroke-width: 3px;
      }
    </style>
  </defs>
  <rect class="st1" x="5" y="5" width="90" height="90" rx="19.9" ry="19.9"/>
  <g class="st0">
    <g class="st0">
      <g class="st0">
        <path d="M35.3,44.3l3.1,3.7h-4.1l-1.8-2.4c-.5,0-1,.2-1.6.2-4,0-7.2-3-7.2-7.2s3.2-7.1,7.2-7.1,7.1,2.9,7.1,7.1-1.1,4.5-2.7,5.7ZM30.9,42.6c2.2,0,3.7-1.6,3.7-4.1s-1.5-4.1-3.7-4.1-3.7,1.6-3.7,4.1,1.4,4.1,3.7,4.1Z"/>
        <path d="M40,31.6h3.4v8.4c0,1.7.8,2.6,2.4,2.6s2.5-1,2.5-2.6v-8.4h3.4v8.3c0,3.9-2.7,5.8-5.9,5.8s-5.8-1.9-5.8-5.8v-8.3Z"/>
        <path d="M62.7,43.1h-5.2l-.8,2.5h-3.6l5.1-14h3.9l5.1,14h-3.6l-.8-2.5ZM60.1,35.4l-1.7,5.1h3.4l-1.7-5.1Z"/>
        <path d="M81.3,38.6c0,4.1-2.9,7-7.3,7h-5.2v-14h5.2c4.5,0,7.3,2.8,7.3,7ZM73.7,42.7c2.6,0,4.1-1.5,4.1-4s-1.5-4.1-4.1-4.1h-1.6v8.1h1.6Z"/>
      </g>
    </g>
    <g class="st0">
      <g class="st0">
        <path d="M32.1,55.3c3.3,0,5.8,1.9,6.6,4.9h-3.7c-.6-1.2-1.6-1.8-2.9-1.8-2.1,0-3.5,1.6-3.5,4s1.4,4,3.5,4,2.3-.6,2.9-1.8h3.7c-.8,3-3.3,4.9-6.6,4.9s-7-2.9-7-7.1,2.9-7.1,7-7.1Z"/>
        <path d="M47.4,69.5c-4,0-7.2-3-7.2-7.2s3.2-7.1,7.2-7.1,7.1,2.9,7.1,7.1-3.2,7.2-7.1,7.2ZM47.4,66.4c2.2,0,3.7-1.6,3.7-4.1s-1.5-4.1-3.7-4.1-3.7,1.6-3.7,4.1,1.4,4.1,3.7,4.1Z"/>
        <path d="M62.1,55.4c3.4,0,5.1,2,5.1,4.4s-1,3.4-3.1,4l3.2,5.5h-3.8l-2.9-5.3h-.8v5.3h-3.4v-14h5.7ZM62,58.3h-2.1v3.5h2.1c1.3,0,1.9-.7,1.9-1.8s-.6-1.7-1.9-1.7Z"/>
        <path d="M78,58.2h-5.2v2.8h4.6v2.6h-4.6v3.1h5.2v2.7h-8.6v-14h8.6v2.7Z"/>
      </g>
    </g>
  </g>
</svg>