<?xml version="1.0" encoding="UTF-8"?>
<svg id="fill" xmlns="http://www.w3.org/2000/svg" version="1.1" viewBox="0 0 100 100">
  <!-- Generator: Adobe Illustrator 29.1.0, SVG Export Plug-In . SVG Version: 2.1.0 Build 142)  -->
  <path d="M85,22h-9.5l-1.7-4.2c-1.5-3.7-5.2-6.2-9.2-6.2h-29.2c-4.2,0-7.7,2.3-9.2,6.2l-1.7,4.2h-9.5c-5.5,0-10,4.5-10,10v46.3c0,5.5,4.5,10,10,10h69.8c5.5,0,10-4.5,10.2-10v-46.3c0-5.5-4.5-10-10-10ZM50,74.4c-10.4,0-19-8.5-19-19s8.5-19,19-19,18.9,8.5,18.9,19-8.5,19-18.9,19ZM81.4,37.4c-1.4,0-2.5-1.1-2.5-2.5s1.1-2.5,2.5-2.5,2.5,1.1,2.5,2.5-1.1,2.5-2.5,2.5Z"/>
</svg>