<?xml version="1.0" encoding="UTF-8"?>
<svg id="fill" xmlns="http://www.w3.org/2000/svg" version="1.1" viewBox="0 0 100 100">
  <!-- Generator: Adobe Illustrator 29.1.0, SVG Export Plug-In . SVG Version: 2.1.0 Build 142)  -->
  <g>
    <path d="M26.6,17.8c-.8,0-1.5-.7-1.5-1.5V5c0-.8.7-1.5,1.5-1.5s1.5.7,1.5,1.5v11.3c0,.8-.7,1.5-1.5,1.5Z"/>
    <path d="M42.1,17.8c-.8,0-1.5-.7-1.5-1.5V5c0-.8.7-1.5,1.5-1.5s1.5.7,1.5,1.5v11.3c0,.8-.7,1.5-1.5,1.5Z"/>
    <path d="M57.7,17.8c-.8,0-1.5-.7-1.5-1.5V5c0-.8.7-1.5,1.5-1.5s1.5.7,1.5,1.5v11.3c0,.8-.7,1.5-1.5,1.5Z"/>
    <path d="M73.3,17.8c-.8,0-1.5-.7-1.5-1.5V5c0-.8.7-1.5,1.5-1.5s1.5.7,1.5,1.5v11.3c0,.8-.7,1.5-1.5,1.5Z"/>
  </g>
  <g>
    <path d="M26.6,96.5c-.8,0-1.5-.7-1.5-1.5v-11.3c0-.8.7-1.5,1.5-1.5s1.5.7,1.5,1.5v11.3c0,.8-.7,1.5-1.5,1.5Z"/>
    <path d="M42.1,96.5c-.8,0-1.5-.7-1.5-1.5v-11.3c0-.8.7-1.5,1.5-1.5s1.5.7,1.5,1.5v11.3c0,.8-.7,1.5-1.5,1.5Z"/>
    <path d="M57.7,96.5c-.8,0-1.5-.7-1.5-1.5v-11.3c0-.8.7-1.5,1.5-1.5s1.5.7,1.5,1.5v11.3c0,.8-.7,1.5-1.5,1.5Z"/>
    <path d="M73.3,96.5c-.8,0-1.5-.7-1.5-1.5v-11.3c0-.8.7-1.5,1.5-1.5s1.5.7,1.5,1.5v11.3c0,.8-.7,1.5-1.5,1.5Z"/>
  </g>
  <g>
    <path d="M83.1,25.3c-.3-4.5-3.9-8.2-8.4-8.6h0c-.3,0-.6,0-.9,0H25c-5,0-9.1,3.9-9.3,8.9,0,.1,0,.3,0,.4v48.7c0,.2,0,.3,0,.4.2,4.9,4.3,8.9,9.3,8.9h48.7c.3,0,.7,0,1,0,4.5-.5,8-4.1,8.3-8.6,0-.2,0-.4,0-.7V26c0-.2,0-.5,0-.7ZM80.1,74.7c0,3.5-2.8,6.3-6.3,6.3H25c-3.5,0-6.3-2.8-6.3-6.3V26c0-3.5,2.8-6.3,6.3-6.3h48.7c3.5,0,6.3,2.8,6.3,6.3,0,0,0,48.7,0,48.7Z"/>
    <path d="M73.8,19.7H25c-3.5,0-6.3,2.8-6.3,6.3v48.7c0,3.5,2.8,6.3,6.3,6.3h48.7c3.5,0,6.3-2.8,6.3-6.3V26c0-3.5-2.8-6.3-6.3-6.3ZM70.9,65c0,3.8-3.1,6.8-6.8,6.8h-29.3c-3.8,0-6.8-3.1-6.8-6.8v-29.3c0-3.8,3-6.8,6.8-6.8h29.3c3.8,0,6.8,3,6.8,6.8v29.3Z"/>
  </g>
  <rect x="30.9" y="31.9" width="36.9" height="36.9" rx="3.8" ry="3.8"/>
  <g>
    <path d="M95.8,28.7h-13.9c-.9,0-1.7-.8-1.7-1.7s.8-1.7,1.7-1.7h13.9c.9,0,1.7.8,1.7,1.7s-.8,1.7-1.7,1.7Z"/>
    <path d="M95.8,44.2h-13.9c-.9,0-1.7-.8-1.7-1.7s.8-1.7,1.7-1.7h13.9c.9,0,1.7.8,1.7,1.7s-.8,1.7-1.7,1.7Z"/>
    <path d="M95.8,59.8h-13.9c-.9,0-1.7-.8-1.7-1.7s.8-1.7,1.7-1.7h13.9c.9,0,1.7.8,1.7,1.7s-.8,1.7-1.7,1.7Z"/>
    <path d="M95.8,75.4h-13.9c-.9,0-1.7-.8-1.7-1.7s.8-1.7,1.7-1.7h13.9c.9,0,1.7.8,1.7,1.7s-.8,1.7-1.7,1.7Z"/>
  </g>
  <g>
    <path d="M15.4,28.5H4c-.8,0-1.5-.7-1.5-1.5s.7-1.5,1.5-1.5h11.3c.8,0,1.5.7,1.5,1.5s-.7,1.5-1.5,1.5Z"/>
    <path d="M15.4,44.1H4c-.8,0-1.5-.7-1.5-1.5s.7-1.5,1.5-1.5h11.3c.8,0,1.5.7,1.5,1.5s-.7,1.5-1.5,1.5Z"/>
    <path d="M15.4,59.6H4c-.8,0-1.5-.7-1.5-1.5s.7-1.5,1.5-1.5h11.3c.8,0,1.5.7,1.5,1.5s-.7,1.5-1.5,1.5Z"/>
    <path d="M15.4,75.2H4c-.8,0-1.5-.7-1.5-1.5s.7-1.5,1.5-1.5h11.3c.8,0,1.5.7,1.5,1.5s-.7,1.5-1.5,1.5Z"/>
  </g>
</svg>