<?xml version="1.0" encoding="UTF-8"?>
<svg id="fill" xmlns="http://www.w3.org/2000/svg" viewBox="0 0 100 100">
  <path d="M60.28,57.8h-2.11v3.46h2.11c1.27,0,1.87-.66,1.87-1.75,0-1.03-.6-1.71-1.87-1.71Z"/>
  <path d="M45.75,57.86c-2.27,0-3.7,1.57-3.7,4.06s1.43,4.06,3.7,4.06,3.68-1.61,3.68-4.06-1.45-4.06-3.68-4.06Z"/>
  <polygon points="57.62 34.88 55.91 39.99 59.35 39.99 57.62 34.88"/>
  <path d="M32.12,38.06c0-2.49-1.45-4.06-3.68-4.06s-3.7,1.57-3.7,4.06,1.43,4.06,3.7,4.06,3.68-1.61,3.68-4.06Z"/>
  <path d="M75.09,5H24.91C13.91,5,5,13.91,5,24.91v50.18c0,11,8.91,19.91,19.91,19.91h50.18c11,0,19.91-8.91,19.91-19.91V24.91c0-11-8.91-19.91-19.91-19.91ZM21.27,38.06c0-4.19,3.22-7.14,7.18-7.14s7.14,2.94,7.14,7.14c0,2.45-1.07,4.45-2.74,5.73l3.06,3.68h-4.12l-1.79-2.41c-.5.1-1.01.16-1.55.16-3.96,0-7.18-2.96-7.18-7.16ZM30.4,65.96c1.29,0,2.35-.6,2.92-1.79h3.74c-.79,3.02-3.3,4.87-6.62,4.87-4.12,0-7.02-2.92-7.02-7.1s2.9-7.12,7.02-7.12c3.32,0,5.83,1.87,6.62,4.89h-3.74c-.58-1.19-1.63-1.79-2.92-1.79-2.09,0-3.52,1.55-3.52,4.02s1.43,4.02,3.52,4.02ZM37.45,31.12h3.4v8.35c0,1.65.81,2.6,2.43,2.6s2.46-.95,2.46-2.6v-8.35h3.4v8.33c0,3.86-2.7,5.77-5.93,5.77s-5.77-1.91-5.77-5.77v-8.33ZM45.75,69.08c-3.96,0-7.18-2.96-7.18-7.16s3.22-7.14,7.18-7.14,7.14,2.94,7.14,7.14-3.18,7.16-7.14,7.16ZM50.62,45.08l5.05-13.96h3.94l5.05,13.96h-3.6l-.83-2.47h-5.21l-.83,2.47h-3.56ZM61.89,68.94l-2.9-5.27h-.81v5.27h-3.4v-13.96h5.71c3.42,0,5.13,1.97,5.13,4.39,0,1.75-.95,3.4-3.1,4.04l3.22,5.53h-3.84ZM76.29,57.71h-5.15v2.82h4.55v2.62h-4.55v3.06h5.15v2.72h-8.55v-13.96h8.55v2.72ZM71.41,45.08h-5.23v-13.96h5.23c4.45,0,7.32,2.82,7.32,6.98s-2.86,6.98-7.32,6.98Z"/>
  <path d="M71.2,34.02h-1.61v8.11h1.61c2.56,0,4.08-1.47,4.08-4.04s-1.51-4.08-4.08-4.08Z"/>
</svg>