<?xml version="1.0" encoding="UTF-8"?>
<svg id="fill" xmlns="http://www.w3.org/2000/svg" version="1.1" viewBox="0 0 100 100">
  <!-- Generator: Adobe Illustrator 29.1.0, SVG Export Plug-In . SVG Version: 2.1.0 Build 142)  -->
  <path d="M70.3,8.1v7.2h-25.7c-.3,0-.6.1-.9.4l-16.1,16.4c-.2.2-.4.5-.4.8v49.5h-7.2c-1.7,0-3.1-1.4-3.1-3.1V20.6l15.4-15.6h34.8c1.7,0,3.1,1.4,3.1,3.1Z"/>
  <g>
    <path d="M79.9,17.6h-34.8l-15.4,15.6v58.6c0,1.7,1.4,3.1,3.1,3.1h47.1c1.7,0,3.1-1.4,3.1-3.1V20.7c0-1.7-1.4-3.1-3.1-3.1ZM75.4,60.4v21.9c0,2.8-2.3,5.1-5.1,5.1h-27.9c-2.8,0-5.1-2.3-5.1-5.1v-30.1c0-2.8,2.3-5.1,5.1-5.1h27.9c2.8,0,5.1,2.3,5.1,5.1v8.2h0Z"/>
    <path d="M73,52.2v7h-7v-9.7h4.2c1.5,0,2.7,1.2,2.7,2.7Z"/>
    <polygon points="73 61.6 73 71.8 66 71.8 66 61.6 73 61.6"/>
    <path d="M47.2,74.2v10.8h-4.8c-1.5,0-2.7-1.2-2.7-2.7v-8.1s7.5,0,7.5,0Z"/>
    <rect x="39.6" y="61.6" width="7.5" height="10.2"/>
    <path d="M47.2,49.5v9.7h-7.5v-7c0-1.5,1.2-2.7,2.7-2.7h4.8Z"/>
    <path d="M73,74.2v8.1c0,1.5-1.2,2.7-2.7,2.7h-20.7v-35.6h14v23.5c0,.3.1.7.4.8.2.2.5.3.8.3h8.2s0,0,0,0Z"/>
  </g>
</svg>