<?xml version="1.0" encoding="UTF-8"?>
<svg id="Layer_1" data-name="Layer 1" xmlns="http://www.w3.org/2000/svg" viewBox="0 0 100 100">
  <defs>
    <style>
      .cls-1 {
        fill: none;
        stroke: #000;
        stroke-linecap: round;
        stroke-linejoin: round;
        stroke-width: 2.35px;
      }
    </style>
  </defs>
  <path class="cls-1" d="M29.05,82.68v8.14c0,2.31,1.87,4.18,4.18,4.18h45.85c2.31,0,4.18-1.87,4.18-4.18V21.51c0-2.31-1.87-4.18-4.18-4.18h-8.14"/>
  <path class="cls-1" d="M44.76,17.32h26.19v-8.14c0-2.31-1.87-4.18-4.18-4.18h-34.33l-15.71,15.92v57.57c0,2.31,1.87,4.18,4.18,4.18h8.14v-49.43l15.71-15.92Z"/>
  <polyline class="cls-1" points="70.95 17.32 44.76 17.32 29.05 33.25 29.05 82.68"/>
  <g>
    <rect class="cls-1" x="38.73" y="48.31" width="34.86" height="37.01" rx="3.83" ry="3.83"/>
    <line class="cls-1" x1="48.42" y1="48.76" x2="48.42" y2="85.21"/>
    <line class="cls-1" x1="38.79" y1="60.14" x2="48.15" y2="60.14"/>
    <line class="cls-1" x1="38.79" y1="72.41" x2="48.15" y2="72.41"/>
    <line class="cls-1" x1="64.45" y1="48.76" x2="64.45" y2="72.38"/>
    <line class="cls-1" x1="64.46" y1="60.12" x2="73.59" y2="60.14"/>
    <line class="cls-1" x1="64.46" y1="72.38" x2="73.59" y2="72.41"/>
  </g>
</svg>