<?xml version="1.0" encoding="UTF-8"?>
<svg id="Layer_1" data-name="Layer 1" xmlns="http://www.w3.org/2000/svg" viewBox="0 0 100 100">
  <defs>
    <style>
      .cls-1 {
        fill: none;
        stroke: #000;
        stroke-linecap: round;
        stroke-linejoin: round;
        stroke-width: 3px;
      }
    </style>
  </defs>
  <g>
    <line class="cls-1" x1="26.64" y1="16.33" x2="26.64" y2="5"/>
    <line class="cls-1" x1="42.21" y1="16.33" x2="42.21" y2="5"/>
    <line class="cls-1" x1="57.79" y1="16.33" x2="57.79" y2="5"/>
    <line class="cls-1" x1="73.36" y1="16.33" x2="73.36" y2="5"/>
  </g>
  <g>
    <line class="cls-1" x1="26.64" y1="95" x2="26.64" y2="83.67"/>
    <line class="cls-1" x1="42.21" y1="95" x2="42.21" y2="83.67"/>
    <line class="cls-1" x1="57.79" y1="95" x2="57.79" y2="83.67"/>
    <line class="cls-1" x1="73.36" y1="95" x2="73.36" y2="83.67"/>
  </g>
  <path d="M73.86,19.68c3.49,0,6.33,2.83,6.33,6.33v48.72c0,3.49-2.83,6.33-6.33,6.33H25.14c-3.49,0-6.33-2.83-6.33-6.33V26.01c0-3.49,2.83-6.33,6.33-6.33h48.72M73.86,16.68H25.14c-5.14,0-9.33,4.18-9.33,9.33v48.72c0,5.14,4.18,9.33,9.33,9.33h48.72c5.14,0,9.33-4.18,9.33-9.33V26.01c0-5.14-4.18-9.33-9.33-9.33h0Z"/>
  <path d="M64.17,31.89c2.1,0,3.81,1.71,3.81,3.81v29.34c0,2.1-1.71,3.81-3.81,3.81h-29.34c-2.1,0-3.81-1.71-3.81-3.81v-29.34c0-2.1,1.71-3.81,3.81-3.81h29.34M64.17,28.89h-29.34c-3.76,0-6.81,3.06-6.81,6.81v29.34c0,3.76,3.06,6.81,6.81,6.81h29.34c3.76,0,6.81-3.06,6.81-6.81v-29.34c0-3.76-3.06-6.81-6.81-6.81h0Z"/>
  <g>
    <line class="cls-1" x1="84.56" y1="27.01" x2="95.89" y2="27.01"/>
    <line class="cls-1" x1="84.56" y1="42.58" x2="95.89" y2="42.58"/>
    <line class="cls-1" x1="84.56" y1="58.15" x2="95.89" y2="58.16"/>
    <line class="cls-1" x1="84.56" y1="73.73" x2="95.89" y2="73.73"/>
  </g>
  <g>
    <line class="cls-1" x1="4.11" y1="27.01" x2="15.44" y2="27.01"/>
    <line class="cls-1" x1="4.11" y1="42.58" x2="15.44" y2="42.58"/>
    <line class="cls-1" x1="4.11" y1="58.15" x2="15.44" y2="58.16"/>
    <line class="cls-1" x1="4.11" y1="73.73" x2="15.44" y2="73.73"/>
  </g>
</svg>