<?xml version="1.0" encoding="UTF-8"?>
<svg id="fill" xmlns="http://www.w3.org/2000/svg" version="1.1" viewBox="0 0 100 100">
  <!-- Generator: Adobe Illustrator 29.1.0, SVG Export Plug-In . SVG Version: 2.1.0 Build 142)  -->
  <g>
    <path d="M30.7,42.3l-1.8,3.1h3.5l1.8-3.1s-3.5,0-3.5,0ZM64.9,42.3l-1.8,3.1h3.5l1.8-3.1h-3.5Z"/>
    <path d="M95,62.1v8.6c0,.8-.4,1.6-1.1,2l-4.4,2.5c-1.7.9-2.7,2.7-2.7,4.6v4.8c0,1.3-1,2.3-2.3,2.3H7.3c-1.2,0-2.3-1-2.3-2.3v-37.1c0-1.2,1-2.3,2.3-2.3h19.3l-7.8,13.6c-1,1.7-.4,3.9,1.3,4.9.5.3,1.1.5,1.8.5,1.3,0,2.5-.7,3.1-1.8l9.9-17.2h26l-11.2,19.6-3.1-11.1c-.4-1.5-1.8-2.6-3.4-2.6s-.6,0-1,.1c-.9.3-1.7.8-2.2,1.7-.5.8-.6,1.8-.3,2.7l5.3,19.3v.2c0,0,0,0,0,0,0,.2.2.4.3.7,0,0,0,.1.1.2.2.3.4.5.7.7,0,0,0,0,.2.1,0,0,.2.1.3.2.2,0,.3.2.4.2,0,0,.2,0,.3.1.4.1.7.2,1,.2s.6,0,.9,0h0l19.5-4.8c.9-.2,1.7-.8,2.2-1.6.5-.8.6-1.8.4-2.7-.4-1.6-1.8-2.7-3.5-2.7s-.6,0-.9.1l-11.4,2.8,13.4-23.3h16.2c1.2,0,2.3,1,2.3,2.3v16.3c0,.8.7,1.5,1.5,1.5s1.5-.7,1.5-1.5v-5.4l3.2,1.6c.8.4,1.2,1.2,1.2,2h0Z"/>
  </g>
  <path d="M66.7,45.3l-15.2,26.4,16-3.9c.1,0,.3,0,.4,0,.7,0,1.3.5,1.5,1.2.2.8-.3,1.6-1.1,1.8l-19.5,4.8h0c-.1,0-.2,0-.4,0s-.3,0-.4,0c0,0,0,0-.1,0,0,0-.1,0-.2,0,0,0,0,0-.1,0,0,0,0,0,0,0-.1,0-.2-.2-.3-.3,0,0,0,0,0,0,0-.1-.2-.3-.2-.4h0l-5.4-19.3c-.2-.8.3-1.7,1.1-1.9.1,0,.3,0,.4,0,.7,0,1.3.4,1.5,1.1l4.4,15.8,14.2-24.8,1.8-3.1,8.6-15c.3-.5.8-.8,1.3-.8s.5,0,.8.2c.7.4,1,1.4.6,2.1l-7.8,13.5-1.8,3.1h0Z"/>
  <path d="M54.1,35.4c-.1,0-.3,0-.4,0-.7,0-1.3-.4-1.5-1.1l-4.4-15.8-13.6,23.7-1.8,3.1-9.3,16.2c-.3.5-.8.8-1.3.8s-.5,0-.8-.2c-.7-.4-1-1.4-.6-2.1l8.4-14.6,1.8-3.1,14.5-25.3-16,4c-.1,0-.3,0-.4,0-.7,0-1.3-.5-1.5-1.2-.2-.8.3-1.6,1.1-1.9l19.5-4.8h0s0,0,.1,0c0,0,0,0,.2,0h0s0,0,.2,0h0c0,0,.2,0,.3,0h0c.3.1.5.3.7.5,0,0,0,0,0,0,0,0,0,0,0,.1,0,0,0,.1,0,.2,0,0,0,0,0,0l5.4,19.3c.2.8-.3,1.7-1.1,1.9h0Z"/>
</svg>