<?xml version="1.0" encoding="UTF-8"?>
<svg id="Layer_1" data-name="Layer 1" xmlns="http://www.w3.org/2000/svg" xmlns:xlink="http://www.w3.org/1999/xlink" viewBox="0 0 100 125">
  <defs>
    <style>
      .cls-1 {
        fill: url(#New_Gradient_Swatch_copy_4);
      }

      .cls-2 {
        fill: url(#New_Gradient_Swatch_copy_5);
      }

      .cls-3 {
        fill: url(#New_Gradient_Swatch_copy_5-2);
      }

      .cls-4 {
        fill: url(#New_Gradient_Swatch_copy_4-2);
      }
    </style>
    <linearGradient id="New_Gradient_Swatch_copy_5" data-name="New Gradient Swatch copy 5" x1="20.44" y1="144.67" x2="72.37" y2="92.74" gradientUnits="userSpaceOnUse">
      <stop offset="0" stop-color="#e3e3ec"/>
      <stop offset=".07" stop-color="#a7a9ac"/>
      <stop offset=".11" stop-color="#606264"/>
      <stop offset=".13" stop-color="#434446"/>
      <stop offset=".15" stop-color="#edebf2"/>
      <stop offset=".27" stop-color="#434446"/>
      <stop offset=".35" stop-color="#58595b"/>
      <stop offset=".38" stop-color="#434446"/>
      <stop offset=".43" stop-color="#e3e3ec"/>
      <stop offset=".5" stop-color="#f5f2f9"/>
      <stop offset=".53" stop-color="#b0afb4"/>
      <stop offset=".58" stop-color="#58595b"/>
      <stop offset=".61" stop-color="#414042"/>
      <stop offset=".64" stop-color="#e3e3ec"/>
      <stop offset=".77" stop-color="#434446"/>
      <stop offset=".81" stop-color="#414042"/>
      <stop offset=".86" stop-color="#e3e3ec"/>
      <stop offset=".91" stop-color="#f5f2f9"/>
      <stop offset=".92" stop-color="#e1dee5"/>
      <stop offset=".95" stop-color="#9d9b9f"/>
      <stop offset=".97" stop-color="#6b696d"/>
      <stop offset=".99" stop-color="#4c4b4d"/>
      <stop offset="1" stop-color="#414042"/>
    </linearGradient>
    <linearGradient id="New_Gradient_Swatch_copy_5-2" data-name="New Gradient Swatch copy 5" x1="4.76" y1="101.75" x2="88.61" y2="17.9" xlink:href="#New_Gradient_Swatch_copy_5"/>
    <linearGradient id="New_Gradient_Swatch_copy_4" data-name="New Gradient Swatch copy 4" x1="24.25" y1="-2.18" x2="65.49" y2="111.12" gradientUnits="userSpaceOnUse">
      <stop offset="0" stop-color="#babfc4"/>
      <stop offset=".25" stop-color="#dee0e2"/>
      <stop offset=".5" stop-color="#fff"/>
      <stop offset=".65" stop-color="#e5e7e9"/>
      <stop offset=".88" stop-color="#c3c8cc"/>
      <stop offset="1" stop-color="#b7bdc2"/>
    </linearGradient>
    <linearGradient id="New_Gradient_Swatch_copy_4-2" data-name="New Gradient Swatch copy 4" x1="49.7" y1="105.21" x2="49.7" y2="123.81" xlink:href="#New_Gradient_Swatch_copy_4"/>
  </defs>
  <path class="cls-2" d="M99.82,125h-3.66l-.59-1.19-5.1-12.8c-.57-.77-1.44-1.21-2.46-1.21-1.32,0-2.39.73-2.88,1.95l-5.28,13.25h-3.66l-.59-1.19,5.78-14.51c1-2.52,3.33-4.09,6.04-4.09s5.03,1.57,6.04,4.09l.06.14c.2.33.39.68.54,1.05l5.78,14.51ZM.18,105.21v18.6l.59,1.19h3.4v-18.6l-.59-1.19H.18ZM52.66,109.69c.67,1.07,1.06,2.33,1.06,3.68v4.68c0,3.83-3.13,6.96-6.95,6.96h-7.36c-2.96,0-5.49-1.87-6.49-4.48-.67-1.07-1.06-2.33-1.06-3.67v-4.68c0-3.83,3.13-6.96,6.96-6.96h7.36c2.95,0,5.48,1.87,6.48,4.48ZM49.59,111.21c-.65-.85-1.66-1.41-2.81-1.41h-7.36c-1.96,0-3.57,1.6-3.57,3.57v4.68c0,.34.06.65.15.96.65.85,1.67,1.42,2.82,1.42h7.36c1.96,0,3.56-1.6,3.56-3.57v-4.68c0-.34-.06-.66-.15-.97ZM24.49,105.21v14.31c0,.49-.4.89-.89.89h-.38c-.21,0-.42-.05-.6-.15-.23-.12-.37-.29-.5-.49-.03-.07-.06-.13-.09-.2l-4.12-9.13c-.05-.12-.11-.24-.16-.35-.07-.15-.13-.3-.21-.45-.08-.18-.17-.35-.27-.53-.03-.06-.07-.11-.1-.17,0-.01-.01-.03-.02-.04-.07-.15-.13-.3-.21-.45-.08-.18-.17-.35-.27-.53-.5-.93-1.09-1.63-2.04-2.14-.68-.37-1.44-.56-2.22-.56h-1.04c-2,0-3.63,1.63-3.63,3.63v14.97l.59,1.19h3.4v-14.31c0-.49.4-.89.89-.89h.38c.21,0,.42.05.6.15.23.12.38.29.5.49.03.07.06.13.09.2l4.12,9.13c.05.12.11.24.16.35.07.15.13.3.21.45.08.18.17.35.27.53.03.06.07.12.11.18,0,.01.01.02.02.04.07.15.13.3.21.45.08.18.17.35.27.53.5.93,1.09,1.63,2.04,2.14.68.37,1.45.56,2.22.56h1.04c2,0,3.63-1.63,3.63-3.63v-14.97l-.59-1.19h-3.4ZM78.4,105.21h-3.66l-5.28,13.25c-.49,1.23-1.56,1.95-2.88,1.95-1.03,0-1.9-.44-2.46-1.21l-5.1-12.8-.59-1.19h-3.66l5.78,14.51c.15.37.33.72.54,1.05l.06.14c1,2.52,3.33,4.09,6.04,4.09s5.03-1.57,6.04-4.09l5.78-14.51-.59-1.19Z"/>
  <path class="cls-3" d="M44.88,23.23h0c0,12.14-9.84,21.98-21.98,21.98-8.29,0-15.5-4.59-19.24-11.36C1.46,30.42.18,26.35.18,21.98H.18C.18,9.84,10.02,0,22.15,0h0c8.29,0,15.5,4.59,19.24,11.36,2.2,3.42,3.48,7.49,3.48,11.87ZM93.16,21.94C85.55,8.83,71.37,0,55.12,0h0v98.9l.75,1.25h43.96v-54.94c0-8.55-2.45-16.52-6.67-23.26ZM44.13,49.45H.18v49.45l.75,1.25h43.96v-49.45l-.75-1.25Z"/>
  <g>
    <path class="cls-1" d="M22.15,0c12.14,0,21.98,9.84,21.98,21.98h0c0,12.14-9.84,21.98-21.98,21.98h0c-12.14,0-21.98-9.84-21.98-21.98H.18C.18,9.84,10.02,0,22.15,0M44.13,49.45H.18v49.45h43.96v-49.45ZM55.12,0v98.9h43.96s0-54.94,0-54.94C99.08,19.68,79.4,0,55.12,0"/>
    <path class="cls-4" d="M3.57,105.21v18.6H.18v-18.6h3.4ZM11.39,105.21h1.04c.77,0,1.54.19,2.22.56.94.51,1.53,1.21,2.04,2.14.09.17.18.35.27.53.07.15.14.3.21.45.05.12.1.24.16.35l4.12,9.13c.05.12.11.24.16.37.06.13.11.25.17.38.06.12.12.25.19.37.17.32.33.59.66.77.19.1.39.15.6.15h.38c.49,0,.89-.4.89-.89v-14.31h3.4v14.97c0,2-1.63,3.63-3.63,3.63h-1.04c-.77,0-1.54-.19-2.22-.56-.94-.51-1.53-1.21-2.04-2.14-.09-.17-.18-.35-.27-.53-.07-.15-.14-.3-.21-.45-.05-.12-.1-.23-.16-.35l-4.12-9.13c-.05-.12-.11-.24-.16-.37-.06-.12-.11-.25-.17-.37-.06-.12-.12-.25-.19-.37-.17-.32-.33-.59-.66-.77-.19-.1-.39-.15-.6-.15h-.38c-.49,0-.89.4-.89.89v14.31h-3.4v-14.97c0-2,1.63-3.63,3.63-3.63ZM38.82,105.21h7.36c3.83,0,6.96,3.13,6.96,6.96v4.68c0,3.83-3.13,6.96-6.96,6.96h-7.36c-3.83,0-6.96-3.13-6.96-6.96v-4.68c0-3.83,3.13-6.96,6.96-6.96ZM49.74,112.17c0-1.96-1.6-3.56-3.56-3.56h-7.36c-1.96,0-3.56,1.6-3.56,3.56v4.68c0,1.96,1.6,3.56,3.56,3.56h7.36c1.96,0,3.56-1.6,3.56-3.56v-4.68ZM58.42,105.21l5.28,13.25c.49,1.23,1.56,1.95,2.88,1.95s2.39-.73,2.88-1.95l5.28-13.25h3.66l-5.78,14.51c-1,2.52-3.32,4.09-6.04,4.09s-5.03-1.57-6.04-4.09l-5.78-14.51h3.66ZM95.57,123.81l-5.28-13.25c-.49-1.23-1.56-1.95-2.88-1.95s-2.39.73-2.88,1.95l-5.28,13.25h-3.66l5.78-14.51c1-2.52,3.33-4.09,6.04-4.09s5.03,1.57,6.04,4.09l5.78,14.51h-3.66Z"/>
  </g>
</svg>