<?xml version="1.0" encoding="UTF-8"?><svg id="Layer_1" xmlns="http://www.w3.org/2000/svg" viewBox="0 0 603.80504 113.38583"><defs><style>.cls-1{fill:#231f20;}</style></defs><path class="cls-1" d="M20.70483-.00006v113.38594H0V-.00006h20.70483Z"/><path class="cls-1" d="M68.36192-.00006h6.31694C79.40123-.00006,84.05818,1.17747,88.20814,3.41804c5.74044,3.10736,9.3507,7.39225,12.41309,13.06727.57241,1.06304,1.11211,2.13427,1.62728,3.22184.42931.90768.84226,1.81535,1.25112,2.73121.31891.7196.63783,1.4392.96083,2.1588l25.11647,55.67899c.33527.74413.66236,1.48826.99763,2.23239.33936.76866.6828,1.52915,1.0426,2.28963.36389.76049.74004,1.52097,1.14482,2.2651,1.05896,1.96254,2.01978,3.58982,4.03957,4.68557,1.13255.61329,2.39594.93221,3.67977.93221h2.32234c2.9847,0,5.42153-2.43682,5.42153-5.42153V-.00006h20.70483v91.25008c0,12.21683-9.91493,22.13585-22.13176,22.13585h-6.31694c-4.71828,0-9.37932-1.17753-13.52928-3.42627-5.74044-3.09918-9.3507-7.38407-12.41309-13.05909-.57241-1.06304-1.11211-2.13427-1.62728-3.22184-.42931-.90768-.84226-1.82353-1.25112-2.73938-.31891-.71142-.63783-1.43102-.96083-2.15062l-25.11647-55.67899c-.33527-.74413-.66236-1.48826-.99354-2.24057-.34345-.76049-.68689-1.52097-1.04669-2.28146-.36389-.76049-.74004-1.52097-1.14482-2.2651-1.05896-1.96254-2.01978-3.598-4.03957-4.68557-1.13255-.61329-2.39185-.93221-3.67977-.93221h-2.32234c-2.9847,0-5.42153,2.43682-5.42153,5.42153v87.25958h-20.70483V22.1358C46.23016,9.91897,56.14509-.00006,68.36192-.00006Z"/><path class="cls-1" d="M235.5747-.00006h44.85638C303.7649-.00006,322.85881,19.09386,322.85881,42.42359v28.53047c0,23.33791-19.09391,42.43182-42.42773,42.43182h-44.85638c-23.33382,0-42.42773-19.09391-42.42773-42.43182v-28.53047C193.14697,19.09386,212.24088-.00006,235.5747-.00006ZM302.14989,42.42359c0-11.94698-9.77183-21.71881-21.71881-21.71881h-44.85638c-11.95107,0-21.7229,9.77183-21.7229,21.71881v28.53047c0,11.95516,9.77183,21.72699,21.7229,21.72699h44.85638c11.94698,0,21.71881-9.77183,21.71881-21.72699v-28.53047Z"/><path class="cls-1" d="M355.06088-.00006l32.17753,80.76683c2.9847,7.4822,9.51016,11.91427,17.56476,11.91427s14.58824-4.43208,17.56476-11.91427L454.54546-.00006h22.29122l-35.23583,88.42893c-6.11659,15.3569-20.26326,24.95701-36.79769,24.95701-16.52625,0-30.68109-9.60011-36.79769-24.95701L332.77374-.00006h22.28713Z"/><path class="cls-1" d="M581.51384,113.38588l-32.17753-80.76683c-2.9847-7.4822-9.51016-11.91427-17.56476-11.91427s-14.58824,4.43208-17.56476,11.91427l-32.17753,80.76683h-22.29122l35.22765-88.43711C501.09045,9.59187,515.23712-.00006,531.77154-.00006c16.52625,0,30.68109,9.59193,36.79769,24.94883l35.23581,88.43711h-22.2912Z"/></svg>