<?xml version="1.0" encoding="UTF-8"?>
<svg id="Layer_1" data-name="Layer 1" xmlns="http://www.w3.org/2000/svg" viewBox="0 0 100 125">
  <defs>
    <style>
      .cls-1 {
        fill: #fff;
      }
    </style>
  </defs>
  <g>
    <path class="cls-1" d="M3.43,106.22v18.78H0v-18.78h3.43Z"/>
    <path class="cls-1" d="M11.32,106.22h1.05c.78,0,1.55.2,2.24.57.95.51,1.55,1.22,2.06,2.16.09.18.18.35.27.53.07.15.14.3.21.45.05.12.11.24.16.36l4.16,9.22c.06.12.11.25.17.37.06.13.11.25.17.38.06.13.12.25.19.38.18.33.33.59.67.78.19.1.4.15.61.15h.38c.49,0,.9-.4.9-.9v-14.45h3.43v15.11c0,2.02-1.64,3.67-3.67,3.67h-1.05c-.78,0-1.55-.2-2.24-.57-.95-.51-1.55-1.22-2.06-2.16-.09-.18-.18-.35-.27-.53-.07-.15-.14-.3-.21-.45-.05-.12-.11-.24-.16-.36l-4.16-9.22c-.06-.12-.11-.25-.16-.37-.06-.13-.11-.25-.17-.38-.06-.13-.12-.25-.19-.38-.18-.33-.33-.6-.67-.78-.19-.1-.4-.15-.61-.15h-.38c-.49,0-.9.4-.9.9v14.45h-3.43v-15.11c0-2.02,1.64-3.67,3.67-3.67Z"/>
    <path class="cls-1" d="M39.02,106.22h7.43c3.86,0,7.03,3.16,7.03,7.03v4.73c0,3.87-3.16,7.03-7.03,7.03h-7.43c-3.86,0-7.03-3.16-7.03-7.03v-4.73c0-3.86,3.16-7.03,7.03-7.03ZM50.04,113.25c0-1.98-1.62-3.6-3.6-3.6h-7.43c-1.98,0-3.6,1.62-3.6,3.6v4.73c0,1.98,1.62,3.6,3.6,3.6h7.43c1.98,0,3.6-1.62,3.6-3.6v-4.73Z"/>
    <path class="cls-1" d="M58.8,106.22l5.33,13.38c.49,1.24,1.58,1.97,2.91,1.97s2.42-.73,2.91-1.97l5.33-13.38h3.69l-5.84,14.65c-1.01,2.54-3.36,4.13-6.09,4.13s-5.08-1.59-6.09-4.13l-5.83-14.65h3.69Z"/>
    <path class="cls-1" d="M96.31,125l-5.33-13.38c-.49-1.24-1.58-1.97-2.91-1.97s-2.42.73-2.91,1.97l-5.33,13.38h-3.69l5.83-14.65c1.01-2.54,3.36-4.13,6.1-4.13s5.08,1.59,6.09,4.13l5.84,14.65h-3.69Z"/>
  </g>
  <g>
    <path class="cls-1" d="M22.19,0c12.25,0,22.19,9.93,22.19,22.19h0c0,12.25-9.93,22.19-22.19,22.19h0c-12.25,0-22.19-9.93-22.19-22.19H0C0,9.93,9.93,0,22.19,0"/>
    <rect class="cls-1" x="0" y="49.92" width="44.38" height="49.92"/>
    <path class="cls-1" d="M55.47,0c24.51,0,44.38,19.87,44.38,44.38v55.47s-44.38,0-44.38,0V0"/>
  </g>
</svg>