<?xml version="1.0" encoding="UTF-8"?>
<svg id="Layer_1" data-name="Layer 1" xmlns="http://www.w3.org/2000/svg" viewBox="0 0 153.06 28.23">
  <defs>
    <style>
      .cls-1 {
        fill: #fff;
      }
    </style>
  </defs>
  <path class="cls-1" d="M17.55,1.26v21h-1.83L2.22,5.22v17.04H0V1.26h1.83l13.53,17.04V1.26h2.19Z"/>
  <path class="cls-1" d="M22.35,14.37c0-4.68,3.42-8.01,8.04-8.01s8.01,3.33,8.01,8.01-3.39,8.04-8.01,8.04-8.04-3.36-8.04-8.04ZM36.24,14.37c0-3.69-2.49-6.15-5.85-6.15s-5.88,2.46-5.88,6.15,2.52,6.15,5.88,6.15,5.85-2.46,5.85-6.15Z"/>
  <path class="cls-1" d="M50.7,6.36v2.07c-.18,0-.36-.03-.51-.03-3.3,0-5.31,2.1-5.31,5.82v8.04h-2.13V6.48h2.04v3.09c.99-2.1,3-3.21,5.91-3.21Z"/>
  <path class="cls-1" d="M63.54,21.3c-.84.75-2.1,1.11-3.33,1.11-2.97,0-4.62-1.68-4.62-4.59v-9.54h-2.82v-1.8h2.82v-3.45h2.13v3.45h4.8v1.8h-4.8v9.42c0,1.86.96,2.88,2.73,2.88.87,0,1.74-.27,2.34-.81l.75,1.53Z"/>
  <path class="cls-1" d="M81.93,13.11v9.15h-2.13v-8.94c0-3.33-1.74-5.04-4.74-5.04-3.39,0-5.52,2.1-5.52,5.7v8.28h-2.13V0h2.13v9.24c1.17-1.83,3.24-2.88,5.91-2.88,3.84,0,6.48,2.22,6.48,6.75Z"/>
  <path class="cls-1" d="M87.72,0h2.13v22.26h-2.13V0Z"/>
  <path class="cls-1" d="M95.31,1.5c0-.81.69-1.5,1.56-1.5s1.56.66,1.56,1.47c0,.87-.66,1.56-1.56,1.56s-1.56-.69-1.56-1.53ZM95.79,6.48h2.13v15.78h-2.13V6.48Z"/>
  <path class="cls-1" d="M118.47,6.48v13.86c0,5.43-2.67,7.89-7.89,7.89-2.88,0-5.7-.87-7.35-2.43l1.08-1.62c1.5,1.35,3.78,2.16,6.21,2.16,3.99,0,5.82-1.83,5.82-5.73v-2.01c-1.32,2.01-3.57,3.06-6.15,3.06-4.5,0-7.92-3.15-7.92-7.68s3.42-7.62,7.92-7.62c2.64,0,4.92,1.08,6.24,3.15v-3.03h2.04ZM116.4,13.98c0-3.42-2.52-5.76-6-5.76s-5.97,2.34-5.97,5.76,2.49,5.79,5.97,5.79,6-2.37,6-5.79Z"/>
  <path class="cls-1" d="M138.96,13.11v9.15h-2.13v-8.94c0-3.33-1.74-5.04-4.74-5.04-3.39,0-5.52,2.1-5.52,5.7v8.28h-2.13V0h2.13v9.24c1.17-1.83,3.24-2.88,5.91-2.88,3.84,0,6.48,2.22,6.48,6.75Z"/>
  <path class="cls-1" d="M153.06,21.3c-.84.75-2.1,1.11-3.33,1.11-2.97,0-4.62-1.68-4.62-4.59v-9.54h-2.82v-1.8h2.82v-3.45h2.13v3.45h4.8v1.8h-4.8v9.42c0,1.86.96,2.88,2.73,2.88.87,0,1.74-.27,2.34-.81l.75,1.53Z"/>
</svg>