<?xml version="1.0" encoding="UTF-8"?>
<svg xmlns="http://www.w3.org/2000/svg" version="1.1" viewBox="0 0 100 100">
  <!-- Generator: Adobe Illustrator 29.0.1, SVG Export Plug-In . SVG Version: 2.1.0 Build 192)  -->
  <defs>
    <style>
      .st0 {
        fill: #010101;
      }

      .st1 {
        fill: none;
        stroke: #231f20;
        stroke-linecap: round;
        stroke-linejoin: round;
        stroke-width: 3px;
      }

      .st2 {
        display: none;
      }
    </style>
  </defs>
  <g id="Layer_1" class="st2">
    <g id="_01_Manual_Book">
      <path class="st1" d="M39.8,5h-14.2c-6.5,0-11.8,5.3-11.8,11.8v68.7"/>
      <path class="st1" d="M28,76.1V5h54.5c3.9,0,7.1,3.2,7.1,7.1v68.7"/>
      <path class="st1" d="M21.4,76.1h68.1v13.2c0,3.2-2.6,5.8-5.8,5.8H21.4c-4.2,0-7.7-3.4-7.7-7.7v-3.6c0-4.2,3.5-7.7,7.7-7.7h0Z"/>
      <path class="st1" d="M77.7,35.8h-3.1c-.3-1.1-.8-2.2-1.3-3.2l2.2-2.2c.9-.9.9-2.4,0-3.4l-3.3-3.4c-.9-.9-2.4-.9-3.3,0l-2.2,2.2c-1-.5-2.1-1-3.2-1.3v-3.1c0-1.3-1.1-2.4-2.4-2.4h-4.7c-1.3,0-2.4,1.1-2.4,2.4v3.1c-1.1.3-2.2.8-3.2,1.3l-2.2-2.2c-.9-.9-2.4-.9-3.3,0l-3.3,3.4c-.9.9-.9,2.4,0,3.4l2.2,2.2c-.5,1-1,2-1.3,3.2h-3.1c-1.3,0-2.4,1.1-2.4,2.4v4.7c0,1.3,1.1,2.4,2.4,2.4h3.1c.3,1.1.8,2.2,1.3,3.2l-2.2,2.2c-.9.9-.9,2.4,0,3.3l3.3,3.3c.9.9,2.4.9,3.3,0l2.2-2.2c1,.5,2,1,3.2,1.3v3.1c0,1.3,1.1,2.4,2.4,2.4h4.7c1.3,0,2.4-1.1,2.4-2.4v-3.1c1.1-.3,2.2-.8,3.1-1.3l2.2,2.2c.9.9,2.4.9,3.3,0l3.3-3.3c.9-.9.9-2.4,0-3.3l-2.2-2.2c.5-1,1-2,1.3-3.2h3.1c1.3,0,2.4-1.1,2.4-2.4v-4.7c0-1.3-1.1-2.4-2.4-2.4Z"/>
      <circle class="st1" cx="58.7" cy="40.5" r="7.1"/>
      <line class="st1" x1="89.5" y1="85.5" x2="49.3" y2="85.5"/>
    </g>
  </g>
  <g id="Layer_2">
    <g id="_x30_1_Manual_Book">
      <g>
        <path class="st0" d="M46.2,85.1c0,.8.7,1.5,1.5,1.5h38.3v2.2c0,2.3-1.9,4.2-4.2,4.2H20.1c-3.4,0-6.1-2.7-6.1-6.1v-3.5c0-3.4,2.7-6.1,6.1-6.1h65.9v6.4h-38.3c-.8,0-1.5.7-1.5,1.5Z"/>
        <path class="st0" d="M25.1,7v67.3h-5c-2.4,0-4.5.9-6.1,2.4V17.2c0-5.6,4.6-10.2,10.2-10.2h.9Z"/>
      </g>
      <g>
        <path class="st0" d="M80.5,7H28.1v67.3h57.9V12.5c0-3.1-2.5-5.5-5.5-5.5ZM79.6,43c0,2.1-1.7,3.8-3.8,3.8h-2c-.2.5-.4.9-.6,1.3l1.4,1.4c.7.7,1.1,1.7,1.1,2.7s-.4,2-1.1,2.7l-3.3,3.3c-1.4,1.4-4,1.4-5.4,0l-1.4-1.4c-.4.2-.9.4-1.3.6v2c0,2.1-1.7,3.8-3.8,3.8h-4.7c-2.1,0-3.8-1.7-3.8-3.8v-2c-.5-.2-.9-.4-1.3-.6l-1.4,1.4c-1.4,1.4-4,1.4-5.4,0l-3.3-3.3c-.7-.7-1.1-1.7-1.1-2.7s.4-2,1.1-2.7l1.4-1.4c-.2-.4-.4-.9-.5-1.3h-2c-2.1,0-3.8-1.7-3.8-3.8v-4.7c0-2.1,1.7-3.8,3.8-3.8h2c.2-.5.3-.9.5-1.3l-1.4-1.4c-.7-.7-1.1-1.7-1.1-2.7s.4-2,1.1-2.7l3.3-3.3c1.4-1.4,4-1.4,5.4,0l1.4,1.4c.4-.2.9-.4,1.3-.6v-2c0-2.1,1.7-3.8,3.8-3.8h4.7c2.1,0,3.8,1.7,3.8,3.8v2c.5.2.9.4,1.3.6l1.4-1.4c1.4-1.4,4-1.4,5.4,0l3.3,3.3c.7.7,1.1,1.7,1.1,2.7s-.4,2-1.1,2.7l-1.4,1.4c.2.4.4.9.6,1.3h2c2.1,0,3.8,1.7,3.8,3.8v4.7Z"/>
        <path class="st0" d="M75.8,37.4h-3c-.7,0-1.2-.4-1.4-1.1-.3-1-.7-2-1.2-2.8-.3-.6-.2-1.3.3-1.8l2.1-2.1c.2-.2.2-.4.2-.6s0-.4-.2-.6l-3.3-3.3c-.3-.3-.9-.3-1.2,0l-2.1,2.1c-.5.5-1.2.6-1.8.2-.9-.5-1.8-.9-2.8-1.2-.6-.2-1.1-.8-1.1-1.4v-3c0-.5-.4-.9-.9-.9h-4.7c-.5,0-.9.4-.9.9v3c0,.7-.4,1.2-1.1,1.4-1,.3-1.9.7-2.8,1.2-.6.3-1.3.2-1.8-.2l-2.1-2.1c-.3-.3-.9-.3-1.2,0l-3.3,3.3c-.2.2-.2.4-.2.6s0,.4.2.6l2.1,2.1c.5.5.6,1.2.2,1.8-.5.9-.9,1.8-1.2,2.8-.2.6-.8,1.1-1.4,1.1h-3c-.5,0-.9.4-.9.9v4.7c0,.5.4.9.9.9h3c.7,0,1.2.4,1.4,1.1.3,1,.7,2,1.2,2.8.3.6.2,1.3-.2,1.8l-2.1,2.1c-.2.2-.2.4-.2.6s0,.4.2.6l3.3,3.3c.3.3.9.3,1.2,0l2.1-2.1c.3-.3.7-.4,1-.4s.5,0,.7.2c.9.5,1.8.9,2.8,1.2.6.2,1.1.8,1.1,1.4v3c0,.5.4.9.9.9h4.7c.5,0,.9-.4.9-.9v-3c0-.7.4-1.2,1.1-1.4,1-.3,2-.7,2.8-1.2.6-.3,1.3-.2,1.8.3l2.1,2.1c.3.3.9.3,1.2,0l3.3-3.3c.2-.2.2-.4.2-.6s0-.4-.2-.6l-2.1-2.1c-.5-.5-.6-1.2-.3-1.8.5-.9.9-1.8,1.2-2.8.2-.6.8-1.1,1.4-1.1h3c.5,0,.9-.4.9-.9v-4.7c0-.5-.4-.9-.9-.9ZM57,49.1c-4.7,0-8.5-3.8-8.5-8.5s3.8-8.5,8.5-8.5,8.5,3.8,8.5,8.5-3.8,8.5-8.5,8.5Z"/>
      </g>
      <path class="st0" d="M62.6,40.6c0,3.1-2.5,5.5-5.5,5.5s-5.5-2.5-5.5-5.5,2.5-5.5,5.5-5.5,5.5,2.5,5.5,5.5Z"/>
    </g>
  </g>
</svg>