<?xml version="1.0" encoding="UTF-8"?>
<svg xmlns="http://www.w3.org/2000/svg" version="1.1" viewBox="0 0 100 100">
  <!-- Generator: Adobe Illustrator 29.0.1, SVG Export Plug-In . SVG Version: 2.1.0 Build 192)  -->
  <defs>
    <style>
      .st0 {
        fill: #010101;
      }

      .st1 {
        fill: none;
        stroke: #231f20;
        stroke-linejoin: round;
        stroke-width: 3px;
      }

      .st2 {
        display: none;
      }
    </style>
  </defs>
  <g id="Layer_1" class="st2">
    <path class="st1" d="M24.4,14.3c1.3-1.4,3.2-2.4,5.3-2.4h59.2c3.9,0,7.1,3.2,7.1,7.1v40.3c0,3.9-3.2,7.1-7.1,7.1h-2.4"/>
    <path class="st1" d="M13.1,21.4h59.2c3.9,0,7.1,3.2,7.1,7.1v40.3c0,3.9-3.2,7.1-7.1,7.1h-35.5l-16.6,16.6v-16.6h-7.1c-3.9,0-7.1-3.2-7.1-7.1V28.5c0-3.9,3.2-7.1,7.1-7.1h0Z"/>
    <g>
      <circle class="st0" cx="27.5" cy="48.6" r="3.7"/>
      <circle class="st0" cx="42.7" cy="48.6" r="3.7"/>
      <circle class="st0" cx="58" cy="48.6" r="3.7"/>
    </g>
  </g>
  <g id="Layer_2">
    <g>
      <path class="st0" d="M87.1,66.5h-2.4c-.8,0-1.5-.7-1.5-1.5s.7-1.5,1.5-1.5h2.4c3.1,0,5.6-2.5,5.6-5.6V17.6c0-3.1-2.5-5.6-5.6-5.6H27.9c-1.6,0-3.1.7-4.2,1.9-.6.6-1.5.7-2.1.1-.6-.6-.7-1.5-.1-2.1,1.6-1.8,4-2.9,6.4-2.9h59.2c4.7,0,8.6,3.9,8.6,8.6v40.3c0,4.7-3.9,8.6-8.6,8.6Z"/>
      <path class="st0" d="M70.6,20H11.4c-3.9,0-7.1,3.2-7.1,7.1v40.3c0,3.9,3.2,7.1,7.1,7.1h7.1v16.6l16.6-16.6h35.5c3.9,0,7.1-3.2,7.1-7.1V27.1c0-3.9-3.2-7.1-7.1-7.1ZM25.7,50.8c-2,0-3.7-1.6-3.7-3.7s1.7-3.7,3.7-3.7,3.7,1.7,3.7,3.7-1.7,3.7-3.7,3.7ZM41,50.8c-2,0-3.7-1.6-3.7-3.7s1.7-3.7,3.7-3.7,3.7,1.7,3.7,3.7-1.7,3.7-3.7,3.7ZM56.2,50.8c-2,0-3.7-1.6-3.7-3.7s1.7-3.7,3.7-3.7,3.7,1.7,3.7,3.7-1.7,3.7-3.7,3.7Z"/>
    </g>
  </g>
</svg>