<?xml version="1.0" encoding="UTF-8"?>
<svg xmlns="http://www.w3.org/2000/svg" version="1.1" viewBox="0 0 100 100">
  <!-- Generator: Adobe Illustrator 29.0.1, SVG Export Plug-In . SVG Version: 2.1.0 Build 192)  -->
  <defs>
    <style>
      .st0 {
        fill: #010101;
      }

      .st1 {
        fill: none;
        stroke: #231f20;
        stroke-linecap: round;
        stroke-linejoin: round;
        stroke-width: 3px;
      }

      .st2 {
        display: none;
      }
    </style>
  </defs>
  <g id="Layer_1" class="st2">
    <g id="_12_Quality">
      <path class="st1" d="M41.3,77.1l-5.4,13.8c-.7,1.7-3,1.9-4,.3l-2.6-4.2c-.5-.8-1.5-1.2-2.5-1l-4.8,1.3c-1.8.5-3.3-1.2-2.7-2.9l7.4-18.8"/>
      <path class="st1" d="M78.2,65.6l.9,2.2,6.5,16.6c.7,1.7-.9,3.4-2.7,2.9l-4.8-1.3c-.9-.2-2,.1-2.5,1l-2.6,4.3c-.9,1.6-3.3,1.3-3.9-.4l-5.5-14.1"/>
      <path class="st1" d="M56.6,8.8h0c5.5-2.4,11.9.3,14.1,5.9h0c1.1,2.7,3.2,4.9,6,6h0c5.6,2.2,8.2,8.6,5.9,14.2h0c-1.2,2.7-1.2,5.7,0,8.4h0c2.4,5.5-.3,11.9-5.9,14.2h0c-2.7,1.1-4.9,3.2-6,6h0c-2.2,5.6-8.6,8.2-14.2,5.9h0c-2.7-1.2-5.7-1.2-8.4,0h0c-5.5,2.4-11.9-.3-14.2-5.9h0c-1.1-2.7-3.2-4.9-6-6h0c-5.6-2.2-8.2-8.6-5.9-14.2h0c1.1-2.7,1.1-5.7,0-8.4h0c-2.4-5.5.3-11.9,5.9-14.1h0c2.7-1.1,4.9-3.2,6-6h0c2.2-5.6,8.6-8.2,14.2-5.9h0c2.7,1.1,5.7,1.1,8.4,0Z"/>
      <circle class="st1" cx="52.4" cy="39" r="20"/>
      <polyline class="st1" points="43.5 37.9 50.2 44.5 61.3 33.4"/>
    </g>
  </g>
  <g id="Layer_2">
    <g>
      <path class="st0" d="M83.9,39.1c0-1.7.3-3.3,1-4.9.7-1.6,1-3.2,1-4.9,0-4.9-2.9-9.6-7.8-11.5-1.6-.6-3-1.6-4.2-2.7-1.2-1.2-2.1-2.6-2.7-4.2-2.6-6.5-10-9.5-16.4-6.8-1.6.7-3.2,1-4.9,1s-3.3-.3-4.9-1c-1.6-.7-3.3-1-4.9-1-4.9,0-9.6,2.9-11.5,7.8-.6,1.6-1.6,3-2.7,4.2-1.2,1.2-2.6,2.1-4.2,2.7-4.9,1.9-7.8,6.6-7.8,11.5s.3,3.3,1,4.9c.7,1.6,1,3.2,1,4.9s-.3,3.3-1,4.9c-.7,1.6-1,3.3-1,4.9,0,4.9,2.9,9.6,7.8,11.5,1.6.6,3,1.6,4.2,2.7,1.2,1.2,2.1,2.6,2.7,4.2,1.9,4.9,6.6,7.8,11.5,7.8s3.3-.3,4.9-1c1.6-.7,3.2-1,4.9-1s3.3.3,4.9,1c1.6.7,3.3,1,4.9,1,4.9,0,9.6-2.9,11.5-7.8.6-1.6,1.6-3,2.7-4.2,1.2-1.2,2.6-2.1,4.2-2.7,4.9-1.9,7.8-6.6,7.8-11.5s-.3-3.3-1-4.9c-.7-1.6-1-3.2-1-4.9ZM49.9,62.2c-12.8,0-23.1-10.4-23.1-23.1s10.4-23.1,23.1-23.1,23.1,10.4,23.1,23.1-10.4,23.1-23.1,23.1Z"/>
      <path class="st0" d="M36.5,80.5c-5.9-1.2-10.9-5.3-13.2-11.1-.6-1.5-1.7-2.7-3.1-3.4h0l-8.5,21.6c-.8,2,1.1,4,3.1,3.4l5.6-1.5c1.1-.3,2.3.2,2.9,1.1l3,4.9c1.1,1.8,3.8,1.6,4.6-.4l5.7-14.6"/>
      <path class="st0" d="M63.4,80.5c5.9-1.2,10.9-5.3,13.2-11.1.6-1.5,1.8-2.8,3.2-3.5h0c0,0,1,2.5,1,2.5l7.5,19.2c.8,2-1,4-3.1,3.4l-5.5-1.6c-1.1-.3-2.3.2-2.9,1.1l-3.1,4.9c-1.1,1.8-3.8,1.5-4.6-.4l-5.8-14.7"/>
      <path class="st0" d="M47.4,47.3c-.4,0-.9-.2-1.2-.5l-7.7-7.7c-.7-.7-.7-1.8,0-2.5s1.8-.7,2.5,0l6.5,6.5,11.6-11.6c.7-.7,1.8-.7,2.5,0s.7,1.8,0,2.5l-12.8,12.8c-.3.3-.8.5-1.2.5Z"/>
    </g>
  </g>
</svg>