<?xml version="1.0" encoding="UTF-8"?><svg id="fill" xmlns="http://www.w3.org/2000/svg" viewBox="0 0 100 100"><defs><style>.cls-1{fill:#ffffff;}</style></defs><path class="cls-1" d="M31.53148,13.99637c0,4.5326-3.68697,8.20828-8.20828,8.20828s-8.19699-3.67568-8.19699-8.20828c0-4.52131,3.67568-8.19699,8.19699-8.19699s8.20828,3.67568,8.20828,8.19699Z"/><path class="cls-1" d="M58.19696,13.99637c0,4.5326-3.67568,8.20828-8.19699,8.20828s-8.20821-3.67568-8.20821-8.20828c0-4.52131,3.68697-8.19699,8.20821-8.19699s8.19699,3.67568,8.19699,8.19699Z"/><path class="cls-1" d="M84.8738,13.99637c0,4.5326-3.67568,8.20828-8.20828,8.20828-4.52131,0-8.19699-3.67568-8.19699-8.20828,0-4.52131,3.67568-8.19699,8.19699-8.19699,4.5326,0,8.20828,3.67568,8.20828,8.19699Z"/><path class="cls-1" d="M31.55398,46.37182c-.04508.46232,0,.90199.07893,1.34174H9.36466c-.32695,0-.54118-.16915-.6314-.28188-.09022-.10144-.24802-.32695-.20294-.66519l1.19515-11.00447c.7667-6.94548,6.61846-12.18834,13.59772-12.18834,3.37123,0,6.61846,1.24023,9.13277,3.50653.77798.68776,1.44324,1.4996,2.06336,2.36774-.91328,1.80405-1.52211,3.79969-1.75891,5.91941l-1.20644,11.00447Z"/><path class="cls-1" d="M91.46968,46.76649c.03379.33824-.11272.56375-.21423.67648-.09022.10144-.30445.27059-.64269.27059h-22.25696c.09022-.43974.1353-.87942.09022-1.34174l-1.20644-11.00447c-.2368-2.11972-.85692-4.11536-1.75891-5.91941,2.5256-3.63054,6.71989-5.87426,11.19613-5.87426,3.37123,0,6.60717,1.24023,9.13277,3.50653,2.5031,2.23244,4.08157,5.3218,4.44238,8.68181l1.21773,11.00447Z"/><path class="cls-1" d="M64.79291,46.77771c.04508.32702-.11279.55254-.20301.65397-.10144.11272-.30438.28188-.6314.28188h-27.917c-.32702,0-.54125-.16915-.63147-.28188-.10144-.10144-.24802-.32695-.21416-.65397l1.20637-11.01569c.76676-6.94548,6.60724-12.17712,13.59772-12.17712s12.83103,5.23165,13.58651,12.17712l1.20644,11.01569Z"/><path class="cls-1" d="M25.12718,69.04596c-11.39907-4.02521-18.71658-10.54216-19.79901-17.668h17.55528c.12401,6.13364.89077,12.13198,2.24373,17.668Z"/><path class="cls-1" d="M37.36066,92.53193c-14.56736-4.28451-26.06794-15.78509-30.35245-30.35245,4.27322,4.61146,10.89168,8.50137,19.25776,11.10591,2.60454,8.35486,6.48316,14.97332,11.09469,19.24654Z"/><path class="cls-1" d="M48.16219,76.66791v17.53271c-7.11463-1.07108-13.63158-8.37736-17.66807-19.78772,5.54738,1.36431,11.54565,2.131,17.66807,2.25501Z"/><path class="cls-1" d="M69.49459,74.4129c-4.02521,11.41036-10.54223,18.71665-17.668,19.78772v-17.53271c6.13357-.12401,12.13191-.89071,17.668-2.25501Z"/><path class="cls-1" d="M92.99179,62.17948c-4.28451,14.56736-15.78509,26.06794-30.35245,30.35245,4.61153-4.27322,8.49016-10.89168,11.09469-19.24654,8.36608-2.60454,14.98453-6.49445,19.25776-11.10591Z"/><path class="cls-1" d="M94.67183,51.37795c-1.08243,7.12585-8.39994,13.6428-19.81029,17.668,1.36424-5.53603,2.13093-11.53437,2.25501-17.668h17.55528Z"/><path class="cls-1" d="M73.49723,51.37795c-.14658,6.64103-1.09365,13.1129-2.72855,18.94209-5.81797,1.62361-12.33492,2.49181-18.94209,2.62711v-21.5692h21.67064Z"/><path class="cls-1" d="M48.16219,51.37795v21.5692c-6.59595-.1353-13.1129-1.0035-18.93087-2.62711-1.6349-5.82919-2.58196-12.30106-2.72855-18.94209h21.65942Z"/></svg>