<?xml version="1.0" encoding="UTF-8"?><svg id="fill" xmlns="http://www.w3.org/2000/svg" viewBox="0 0 100 100"><defs><style>.cls-1{fill:none;stroke:#ffffff;stroke-linecap:round;stroke-linejoin:round;stroke-width:3.16216px;}.cls-2{fill:#ffffff;stroke:none;stroke-linecap:round;stroke-linejoin:round;stroke-width:3.16216px;}</style></defs><path id="path515" class="cls-1" d="M44.7112,20.0694V5.71983"/><path id="path519" class="cls-1" d="M35.90431,20.67428l-5.81533-6.42021"/><path id="path523" class="cls-1" d="M53.51809,20.0694l5.81533-5.81533"/><path class="cls-2" d="M65.39012,36.74438c3.90865-1.72975,9.49147,3.34862,6.41305,8.43834,4.40735-.4574,7.51828,4.10643,5.10363,7.94128,3.70014,1.78777,5.38397,5.98314,2.54114,8.82597l-22.60396,22.60392c-1.54475,1.54474-4.05022,1.54167-5.59118-.00685l-20.5777-20.67871c-2.84659-7.96455-2.23246-18.65224-4.93877-26.45148-1.24193-3.5791-8.86265-7.31358-4.23497-11.31117,4.12739-3.56541,9.16356,1.32558,11.81431,4.4069,2.51336,2.9216,4.63445,7.99681,6.96402,10.25.66522.64341,1.98992,1.59645,2.92744,1.33673,0,0,20.5012-20.37439,26.74875-26.62193,7.29109-7.29109,15.64001.90245,8.10245,8.44-2.76316,2.76316-10.08207,10.24088-12.66821,12.82701Z"/><rect class="cls-2" x="20.15087" y="74.4873" width="33.73143" height="12.18902" rx="2.30126" ry="2.30126" transform="translate(67.82191 -2.57279) rotate(45.00004)"/></svg>