<?xml version="1.0" encoding="UTF-8"?><svg id="fill" xmlns="http://www.w3.org/2000/svg" viewBox="0 0 100 100"><defs><style>.cls-1{fill:#ffffff;}.cls-2{fill:none;stroke:#ffffff;stroke-linecap:round;stroke-linejoin:round;stroke-width:3.00013px;}</style></defs><rect class="cls-2" x="4.5" y="4.5" width="91" height="91" rx="45.49995" ry="45.49995"/><path class="cls-1" d="M50.00727,30.00551c4.49389,0,8.14427-3.65038,8.14427-8.14427s-3.65038-8.14427-8.14427-8.14427-8.14427,3.65038-8.14427,8.14427,3.65038,8.14427,8.14427,8.14427Z"/><path class="cls-1" d="M75.60354,28.22603l-.07272.01454-.05817.01454c-.14543.04363-.29087.08726-.4363.13089-2.70506.79988-15.83769,4.49389-25.1018,4.49389-8.59511,0-20.54973-3.19953-24.37463-4.29028-.37813-.14543-.7708-.27632-1.16347-.37813-2.76323-.72717-4.65387,2.0797-4.65387,4.63932,0,2.54508,2.2833,3.75218,4.58115,4.62478v.04363l13.84526,4.31937c1.4107.5381,1.78883,1.09075,1.97789,1.57068.59628,1.54159.11635,4.5957-.04363,5.65736l-.84351,6.5445-4.66841,25.6399c-.01454.07272-.02909.14543-.04363.21815l-.02909.18906c-.3345,2.34148,1.38162,4.62478,4.65387,4.62478,2.85049,0,4.11576-1.96335,4.65387-4.63932,0,0,4.07213-22.9203,6.1082-22.9203s6.22455,22.9203,6.22455,22.9203c.55264,2.67597,1.80337,4.63932,4.65387,4.63932,3.27225,0,5.00291-2.28331,4.65387-4.63932-.02909-.20361-.07272-.39267-.11634-.59628l-4.72658-25.40721-.84351-6.5445c-.61082-3.81035-.11634-5.07562.04363-5.36649,0,0,.01454-.01454.01454-.02909.15998-.29087.8726-.94532,2.54508-1.57068l12.9872-4.53752c.07272-.01454.15998-.04363.23269-.07272,2.32693-.8726,4.65387-2.0797,4.65387-4.63932s-1.89063-5.38103-4.65387-4.65387h0Z"/></svg>